<svg height="512" viewBox="0 0 128 128" width="512" xmlns="http://www.w3.org/2000/svg"><path d="m120.49 74.845-9.845-21.04a1.749 1.749 0 0 0 -1.585-1.005h-17.682v-20.853h15.665a5.3 5.3 0 0 0 5.293-5.294v-16.145a5.3 5.3 0 0 0 -5.293-5.294h-86.086a5.3 5.3 0 0 0 -5.294 5.294v16.145a5.3 5.3 0 0 0 5.294 5.294h15.664v20.853h-17.681a1.75 1.75 0 0 0 -1.585 1.009l-9.845 21.036a1.75 1.75 0 0 0 1.59 2.491h8.1v39.749a5.707 5.707 0 0 0 5.7 5.7h82.22a5.707 5.707 0 0 0 5.7-5.7v-39.749h8.095a1.75 1.75 0 0 0 1.585-2.491zm-11.654-64.337v16.145a1.8 1.8 0 0 1 -1.793 1.794h-5.3v-19.733h5.3a1.8 1.8 0 0 1 1.793 1.794zm-34.219-1.794a10.761 10.761 0 0 1 -21.235 0zm-55.454 17.939v-16.145a1.8 1.8 0 0 1 1.794-1.794h5.3v19.733h-5.3a1.8 1.8 0 0 1 -1.794-1.794zm19.208 1.794h-8.617v-19.733h20.105a14.247 14.247 0 0 0 28.282 0h20.1v19.733h-8.613a1.75 1.75 0 0 0 -1.75 1.75v22.603h-47.757v-22.6a1.75 1.75 0 0 0 -1.75-1.753zm-18.318 27.853h41.2l-8.207 17.54h-41.2zm.637 60.789v-39.753h33.465a1.75 1.75 0 0 0 1.585-1.009l6.51-13.912v56.871h-39.36a2.2 2.2 0 0 1 -2.2-2.201zm86.62 0a2.2 2.2 0 0 1 -2.2 2.2h-39.36v-56.873l6.509 13.911a1.751 1.751 0 0 0 1.585 1.009h33.466zm-32.352-43.253-8.207-17.536h41.2l8.207 17.54z"/></svg>