<svg id="Capa_1" enable-background="new 0 0 512 512" height="512" viewBox="0 0 512 512" width="512" xmlns="http://www.w3.org/2000/svg"><g><path d="m493.437 214.664h-30.476c-5.381-27.134-16.198-53.299-31.567-76.36l21.634-21.731c6.785-6.817 6.785-17.909 0-24.725l-33.559-33.709c-3.299-3.313-7.686-5.138-12.355-5.138s-9.056 1.824-12.354 5.138l-21.596 21.691c-5.07-3.411-10.308-6.595-15.64-9.547-1.344-15.718-14.559-28.101-30.619-28.101-6.912 0-13.298 2.295-18.438 6.161-2.429-5.397-6.369-9.97-11.281-13.178v-17.665c0-9.649-7.83-17.5-17.455-17.5h-47.461c-9.625 0-17.455 7.851-17.455 17.5v15.376c-1.152.919-2.237 1.918-3.246 2.991-5.635-7.117-14.342-11.696-24.104-11.696-16.95 0-30.74 13.79-30.74 30.739v14.15c-6.119 3.29-12.111 6.882-17.89 10.77l-21.595-21.69c-3.298-3.313-7.686-5.138-12.355-5.138s-9.057 1.824-12.354 5.137l-33.56 33.71c-6.785 6.815-6.785 17.907 0 24.725l21.634 21.731c-15.369 23.061-26.186 49.227-31.568 76.36h-30.474c-9.625 0-17.455 7.851-17.455 17.5v47.672c0 9.649 7.83 17.5 17.455 17.5h30.476c5.382 27.134 16.199 53.3 31.568 76.36l-21.635 21.731c-6.785 6.817-6.785 17.909.001 24.725l33.559 33.709c3.298 3.313 7.686 5.138 12.355 5.138s9.057-1.824 12.354-5.138l21.596-21.691c22.948 15.421 48.982 26.275 75.978 31.68v30.65c0 9.649 7.831 17.5 17.455 17.5h47.459c9.625 0 17.455-7.851 17.455-17.5v-30.649c7.581-1.517 15.13-3.467 22.518-5.819 3.946-1.257 6.127-5.476 4.87-9.423-1.258-3.946-5.475-6.125-9.423-4.87-8.744 2.785-17.729 4.962-26.708 6.471-3.611.607-6.257 3.734-6.257 7.396v36.893c0 1.379-1.102 2.5-2.455 2.5h-47.459c-1.354 0-2.455-1.121-2.455-2.5v-36.895c0-3.662-2.646-6.789-6.257-7.396-29.069-4.884-57.158-16.599-81.23-33.876-2.988-2.146-7.092-1.807-9.688.802l-26.029 26.145c-.592.595-1.265.72-1.724.72s-1.132-.125-1.725-.72l-33.559-33.71c-.977-.981-.977-2.579 0-3.56l26.028-26.146c2.579-2.59 2.915-6.66.796-9.639-17.205-24.187-28.871-52.411-33.736-81.623-.602-3.616-3.731-6.268-7.398-6.268h-36.73c-1.354 0-2.455-1.121-2.455-2.5v-47.672c0-1.379 1.101-2.5 2.455-2.5h36.73c3.667 0 6.796-2.651 7.398-6.268 4.866-29.212 16.531-57.437 33.736-81.623 2.119-2.979 1.782-7.049-.796-9.639l-26.027-26.142c-.978-.981-.978-2.579-.001-3.561l33.56-33.709c.592-.595 1.265-.72 1.724-.72s1.132.125 1.725.72l26.028 26.145c2.596 2.607 6.7 2.948 9.688.802 4.648-3.336 9.466-6.473 14.399-9.396v18.928c-16.019 6.933-27.263 22.935-27.263 41.528 0 10.366 2.367 20.413 6.904 29.545-15.701 23.681-24.008 51.216-24.008 79.728 0 79.54 64.437 144.25 143.64 144.25s143.64-64.71 143.64-144.25c0-15.944-2.594-31.633-7.709-46.629-1.338-3.921-5.603-6.011-9.521-4.677-3.92 1.338-6.014 5.6-4.677 9.521 4.583 13.433 6.906 27.492 6.906 41.785 0 44.67-22.673 84.118-57.062 107.343v-119.194c0-6.471 1.753-12.823 5.067-18.366l16.814-28.08c3.961-6.615 6.536-13.944 7.61-21.537 2.418 3.084 4.705 6.275 6.838 9.567 1.436 2.217 3.844 3.424 6.302 3.424 1.397 0 2.811-.39 4.07-1.206 3.477-2.252 4.47-6.896 2.218-10.372-5.459-8.429-11.8-16.278-18.854-23.383l.002-66.487c4.105 2.512 8.132 5.161 12.028 7.958 2.987 2.145 7.091 1.807 9.688-.802l26.028-26.145c.593-.595 1.265-.72 1.724-.72.46 0 1.132.125 1.725.72l33.559 33.709c.978.981.977 2.579 0 3.561l-26.028 26.145c-2.578 2.59-2.914 6.66-.796 9.639 17.206 24.188 28.871 52.412 33.735 81.623.603 3.616 3.731 6.268 7.398 6.268h36.73c1.354 0 2.455 1.121 2.455 2.5v47.672c0 1.379-1.102 2.5-2.455 2.5h-36.73c-3.667 0-6.796 2.651-7.398 6.268-4.864 29.211-16.529 57.436-33.735 81.623-2.118 2.979-1.782 7.049.796 9.639l26.028 26.145c.977.981.978 2.579 0 3.561l-33.559 33.709c-.593.595-1.265.72-1.725.72-.459 0-1.131-.125-1.724-.72l-26.028-26.145c-2.597-2.607-6.698-2.946-9.688-.802-7.961 5.713-16.485 10.896-25.334 15.401-3.691 1.88-5.159 6.396-3.28 10.087 1.881 3.691 6.399 5.159 10.087 3.28 7.604-3.872 14.985-8.209 22.017-12.933l21.597 21.692c3.299 3.313 7.686 5.138 12.354 5.138 4.67 0 9.057-1.824 12.355-5.138l33.559-33.709c6.785-6.815 6.785-17.907 0-24.725l-21.634-21.731c15.369-23.062 26.187-49.227 31.567-76.36h30.476c9.625 0 17.455-7.851 17.455-17.5v-47.672c.001-9.65-7.829-17.501-17.454-17.501zm-166.532-157.481c8.679 0 15.74 7.061 15.74 15.739v57.816c0 .013-.002.025-.002.039v.039c-.021 8.661-7.073 15.702-15.738 15.702-8.679 0-15.739-7.062-15.739-15.74v-57.856c-.001-8.679 7.06-15.739 15.739-15.739zm-62.025 44.34h-.194v-40.609c0-8.679 7.061-15.739 15.739-15.739s15.74 7.061 15.74 15.739v71.863c0 8.679-7.062 15.74-15.74 15.74-.227 0-.452-.014-.677-.024 4.343-7.396 6.846-16.004 6.846-25.193 0-12.007-9.741-21.777-21.714-21.777zm-46.674-44.611c0-8.68 7.061-15.74 15.74-15.74s15.74 7.061 15.74 15.74v44.611h-31.48zm11.609-39.412c0-1.379 1.102-2.5 2.455-2.5h47.459c1.354 0 2.455 1.121 2.455 2.5v12.729c-.583-.033-1.169-.054-1.76-.054-8.375 0-15.974 3.37-21.524 8.821-5.586-7.758-14.688-12.824-24.956-12.824-1.401 0-2.778.103-4.13.285v-8.957zm-58.089 37.41c0-8.679 7.061-15.739 15.74-15.739s15.74 7.061 15.74 15.739v46.613h-28.708c-.931 0-1.854.038-2.771.094v-46.707zm164.864 135.086-16.817 28.085c-4.707 7.873-7.195 16.888-7.195 26.068v127.908c-17.085 8.442-36.288 13.193-56.578 13.193-25.167 0-48.664-7.305-68.514-19.906v-60.553c0-4.143-3.358-7.5-7.5-7.5s-7.5 3.357-7.5 7.5v49.434c-27.6-23.725-45.126-58.955-45.126-98.225 0-23.295 6.193-45.856 17.941-65.737l20.237 28.485c4.545 6.397 6.947 13.934 6.947 21.796v31.084c0 4.143 3.358 7.5 7.5 7.5s7.5-3.357 7.5-7.5v-31.084c0-10.993-3.361-21.534-9.719-30.483l-23.789-33.484c-6.225-8.762-9.515-19.083-9.515-29.85 0-16.654 13.474-30.203 30.035-30.203h90.382c3.702 0 6.714 3.041 6.714 6.778 0 19.175-15.516 34.774-34.587 34.774h-32.146c-4.142 0-7.5 3.357-7.5 7.5s3.358 7.5 7.5 7.5h18.016c5.696 1.885 37.533 14.721 37.533 66.044 0 4.143 3.357 7.5 7.5 7.5s7.5-3.357 7.5-7.5c0-34.722-13.186-54.763-24.247-65.461-.739-.715-1.479-1.397-2.217-2.051 7.496-1.867 14.321-5.451 20.042-10.31 3.616 1.45 7.486 2.22 11.437 2.22 9.762 0 18.469-4.579 24.104-11.697 5.61 5.962 13.563 9.696 22.376 9.696 5.749 0 11.131-1.59 15.738-4.348v10.91c.001 7.727-2.092 15.305-6.052 21.917z"/></g></svg>