<svg height="512" viewBox="0 0 64 64" width="512" xmlns="http://www.w3.org/2000/svg"><g id="_15-Factory" data-name="15-Factory"><path d="m38 46h-37a1 1 0 0 1 -1-1v-4a1 1 0 0 1 1-1h40v2h-39v2h36z"/><path d="m32 42h-28a1 1 0 0 1 -1-1v-19a1 1 0 0 1 1-1h28a1 1 0 0 1 1 1v19a1 1 0 0 1 -1 1zm-27-2h26v-17h-26z"/><path d="m29 41h-2v-14h-18v14h-2v-15a1 1 0 0 1 1-1h20a1 1 0 0 1 1 1z"/><path d="m8 29h20v2h-20z"/><path d="m8 33h20v2h-20z"/><path d="m4 23a1 1 0 0 1 -1-1v-21a1 1 0 0 1 1-1h6a1 1 0 0 1 1 1v17.96l20.725-5.921a1 1 0 0 1 1.275.961v8h-2v-6.674l-26.725 7.635a.993.993 0 0 1 -.275.039zm1-21v18.674l4-1.143v-17.531z"/><path d="m33 41h-2v-19a1 1 0 0 1 1-1h28a1 1 0 0 1 1 1v16h-2v-15h-26z"/><path d="m32.275 22.961-.55-1.922 28-8a1 1 0 0 1 1.275.961v8h-2v-6.674z"/><path d="m33 22h-2v-21a1 1 0 0 1 1-1h6a1 1 0 0 1 1 1v19h-2v-18h-4z"/><path d="m15 20h-2v-16a1 1 0 0 1 1-1h5a1 1 0 0 1 1 1v14h-2v-13h-3z"/><path d="m43 20h-2v-16a1 1 0 0 1 1-1h5a1 1 0 0 1 1 1v14h-2v-13h-3z"/><path d="m6-.243h2v8.485h-2z" transform="matrix(.707 -.707 .707 .707 -.778 6.121)"/><path d="m6 5.757h2v8.485h-2z" transform="matrix(.707 -.707 .707 .707 -5.021 7.879)"/><path d="m6 11.757h2v8.485h-2z" transform="matrix(.707 -.707 .707 .707 -9.263 9.636)"/><path d="m15.5 2.964h2v7.071h-2z" transform="matrix(.707 -.707 .707 .707 .237 13.571)"/><path d="m15.5 8.964h2v7.071h-2z" transform="matrix(.707 -.707 .707 .707 -4.006 15.328)"/><path d="m34-.243h2v8.485h-2z" transform="matrix(.707 -.707 .707 .707 7.423 25.92)"/><path d="m34 5.757h2v8.485h-2z" transform="matrix(.707 -.707 .707 .707 3.18 27.678)"/><path d="m34 11.757h2v8.485h-2z" transform="matrix(.707 -.707 .707 .707 -1.062 29.435)"/><path d="m43.5 2.964h2v7.071h-2z" transform="matrix(.707 -.707 .707 .707 8.438 33.37)"/><path d="m43.5 8.964h2v7.071h-2z" transform="matrix(.707 -.707 .707 .707 4.195 35.127)"/><path d="m44 35h-6a1 1 0 0 1 -1-1v-8a1 1 0 0 1 1-1h6a1 1 0 0 1 1 1v8a1 1 0 0 1 -1 1zm-5-2h4v-6h-4z"/><path d="m54 35h-6a1 1 0 0 1 -1-1v-8a1 1 0 0 1 1-1h6a1 1 0 0 1 1 1v8a1 1 0 0 1 -1 1zm-5-2h4v-6h-4z"/><path d="m51 64a13 13 0 1 1 13-13 13.015 13.015 0 0 1 -13 13zm0-24a11 11 0 1 0 11 11 11.013 11.013 0 0 0 -11-11z"/><path d="m48 58a1 1 0 0 1 -.707-.293l-4-4a1 1 0 0 1 0-1.414l2-2a1 1 0 0 1 1.414 0l1.293 1.293 7.242-7.241a1 1 0 0 1 1.414 0l2 2a1 1 0 0 1 0 1.414l-9.949 9.948a1 1 0 0 1 -.707.293zm-2.586-5 2.586 2.586 8.535-8.534-.586-.586-7.242 7.241a1 1 0 0 1 -1.414 0l-1.293-1.293z"/></g></svg>