<svg id="_x33_0" enable-background="new 0 0 64 64" height="512" viewBox="0 0 64 64" width="512" xmlns="http://www.w3.org/2000/svg"><g><path d="m48 11h-10c-3.86 0-7 3.14-7 7v1c0 1.103.897 2 2 2h2v8c0 1.103.897 2 2 2h12c1.103 0 2-.897 2-2v-8h2c1.103 0 2-.897 2-2v-1c0-3.86-3.14-7-7-7zm-3 2c0 1.103-.897 2-2 2s-2-.897-2-2zm-12 6v-1c0-1.627.793-3.061 2-3.974v4.974zm4 10v-15.899c.323-.066.658-.101 1-.101h1c0 2.206 1.794 4 4 4s4-1.794 4-4h1c.342 0 .677.035 1 .101v15.899zm16-10h-2v-4.974c1.207.914 2 2.348 2 3.974z"/><path d="m43 5c-8.822 0-16 7.178-16 16s7.178 16 16 16 16-7.178 16-16-7.178-16-16-16zm0 30c-7.72 0-14-6.28-14-14s6.28-14 14-14 14 6.28 14 14-6.28 14-14 14z"/><path d="m63 21c0-11.028-8.972-20-20-20-6.523 0-12.309 3.153-15.962 8h-19.2l-6.838 2.279v22.108l5.026-1.675-2.644 5.288h3.618v19c0 1.654 1.346 3 3 3h27v1c0 2.061 3.11 3 6 3s6-.939 6-3v-17c0-.975-.29-1.911-.805-2.708 8.513-2.296 14.805-10.063 14.805-19.292zm-50 6h8v-2h-8v-2h10.101c.211 2.115.76 4.13 1.58 6h-11.681zm10-6h-10v-6h10.922c-.597 1.895-.922 3.91-.922 6zm1.682-8h-13.682v16h-2v-18h16.706c-.375.646-.722 1.31-1.024 2zm-21.682-.279 4-1.333v17.892l-4 1.333zm5.618 18.279h17.088c.846 1.458 1.861 2.805 3.035 4h-22.123zm1.382 26c-.551 0-1-.449-1-1v-19h22.051c1.998 1.496 4.279 2.624 6.754 3.292-.514.797-.805 1.733-.805 2.708v14zm33 4c-2.484 0-3.875-.754-4-1v-13.695c1.128.469 2.589.695 4 .695s2.873-.226 4.002-.695l.007 13.641c-.134.3-1.525 1.054-4.009 1.054zm4-18v.956c-.156.306-1.539 1.044-4 1.044-2.484 0-3.875-.754-4-1v-1c0-.869.394-1.677 1.042-2.244.968.145 1.95.244 2.958.244s1.991-.099 2.959-.244c.647.568 1.041 1.375 1.041 2.244zm-4-4c-9.925 0-18-8.075-18-18s8.075-18 18-18 18 8.075 18 18-8.075 18-18 18z"/><path d="m11 51h2v2h-2z"/><path d="m15 51h2v2h-2z"/><path d="m19 51h2v2h-2z"/></g></svg>