<?xml version="1.0" encoding="UTF-8"?>
<svg xmlns="http://www.w3.org/2000/svg" viewBox="0 0 512 512" width="512" height="512"><g id="GLYPH"><path d="M379.729,359.73779l-7.98242.52442c.168,2.55957.25342,5.16308.25342,7.73779a116.00005,116.00005,0,1,1-227.83008-30.93555l-7.71191-2.1289A124.01364,124.01364,0,1,0,380,368C380,365.251,379.90869,362.47119,379.729,359.73779Z"/><path d="M256,252a115.65114,115.65114,0,0,1,61.86377,17.855l4.27246-6.76367a124.05983,124.05983,0,0,0-173.60059,43.00293l6.92872,3.999A116.42773,116.42773,0,0,1,256,252Z"/><path d="M52.20508,345.26514A4.00013,4.00013,0,0,0,56,348h48a4.00013,4.00013,0,0,0,3.79492-2.73486L114.8833,324H136a4.00027,4.00027,0,0,0,3.978-4.41895l-16-152A4.0001,4.0001,0,0,0,120,164H106.8833l-7.08838-21.26514A4.00013,4.00013,0,0,0,96,140H64a4.00013,4.00013,0,0,0-3.79492,2.73486L53.1167,164H40a4.0001,4.0001,0,0,0-3.978,3.58105l-16,152A4.00027,4.00027,0,0,0,24,324H45.1167ZM89.65723,316l-32-32L72,269.65723,118.34277,316Zm41.89941,0h-1.89941l-52-52L92,249.65723l36.4054,36.40539Zm-4.48236-42.583L97.65723,244l23.81384-23.81384ZM43.60107,172h34.7417L39.51385,210.82886ZM38.1828,223.47437,89.65723,172h26.7417l.18512,1.75879L34.808,255.53467ZM33.47693,268.1803l84.18469-84.18469,2.73193,25.95361L30.10223,300.24048Zm-4.70581,44.70581L52,289.65723,78.34277,316H28.44336Z"/><path d="M200,204h96v-8H204V152h-8v48A4.0002,4.0002,0,0,0,200,204Z"/><path d="M244,132H160v8h84a16,16,0,0,0,0-32H232v8h12a8,8,0,0,1,0,16Z"/><path d="M380,128a8.00917,8.00917,0,0,1-8,8H330.32373v8H372a16,16,0,0,0,0-32H360v8h12A8.00917,8.00917,0,0,1,380,128Z"/><path d="M472,164H328a20.02292,20.02292,0,0,0-20,20v32a4.00775,4.00775,0,0,0,.20508,1.26514l8,24A4.00013,4.00013,0,0,0,320,244h12v20h8V244h12a3.99993,3.99993,0,0,0,3.79492-2.73535l4.353-13.05908A11.9848,11.9848,0,0,1,371.53223,220H392a12.01375,12.01375,0,0,1,12,12v60H312a4.0002,4.0002,0,0,0-4,4v6.34277l-84,84.00049-29.17139-29.17187a4.00147,4.00147,0,0,0-5.65722,0l-24,24a4.0006,4.0006,0,0,0,0,5.65722l56,56a4.00088,4.00088,0,0,0,5.65722,0l95.62171-95.6217A20.03654,20.03654,0,0,0,328,348H472a20.02292,20.02292,0,0,0,20-20V184A20.02292,20.02292,0,0,0,472,164Zm-24,52a16,16,0,1,1-16,16A16,16,0,0,1,448,216Zm36,112a12.01375,12.01375,0,0,1-12,12H329.65723l17.17138-17.17139a4.0006,4.0006,0,0,0,0-5.65722L329.65723,300H484Z"/><path d="M460.416,154.898l7.168-3.55176A235.59494,235.59494,0,0,0,369.93359,49.2749l-3.86718,7.00293A227.63379,227.63379,0,0,1,460.416,154.898Z"/><path d="M145.93359,56.27783l-3.86718-7.00293A237.85278,237.85278,0,0,0,59.14111,125.79L65.80957,130.21A229.825,229.825,0,0,1,145.93359,56.27783Z"/><path d="M52.13379,358.20459l-7.14844,3.59082A238.15572,238.15572,0,0,0,150.20459,467.01465l3.59082-7.14844A230.10618,230.10618,0,0,1,52.13379,358.20459Z"/><path d="M357.10205,460.416l3.55176,7.168A237.90938,237.90938,0,0,0,467.584,360.65332l-7.168-3.55176A229.86651,229.86651,0,0,1,357.10205,460.416Z"/><path d="M181.17139,90.82861a4.00147,4.00147,0,0,0,5.65722,0L196,81.65674V120h8V72a4.00032,4.00032,0,0,0-6.82861-2.82861L184,82.34326,165.28174,63.62451,175.271,50.30566a52.15493,52.15493,0,0,1,28.98779-19.24755L216.49219,28h4.38489l1.42175,5.687a34.7384,34.7384,0,0,0,67.40234,0L291.12292,28h4.38489l12.2334,3.05811A52.15493,52.15493,0,0,1,336.729,50.30566l9.98926,13.31885L328,82.34326,314.82861,69.17139A4.00032,4.00032,0,0,0,308,72v80h8V81.65674l9.17139,9.17187a4.00147,4.00147,0,0,0,5.65722,0l24-24a4.00057,4.00057,0,0,0,.37159-5.22851L343.12939,45.50586a60.17743,60.17743,0,0,0-33.44775-22.2085l-12.71143-3.17773A3.98747,3.98747,0,0,0,296,20H216a3.98747,3.98747,0,0,0-.97021.11963l-12.71143,3.17773a60.17743,60.17743,0,0,0-33.44775,22.2085L156.7998,61.6001a4.00057,4.00057,0,0,0,.37159,5.22851Z"/><rect x="240" y="156" width="48" height="8"/></g></svg>
