<?xml version="1.0"?>
<svg xmlns="http://www.w3.org/2000/svg" width="512" height="512" viewBox="0 0 128 128"><g><path d="M63.833,35.713a1.75,1.75,0,0,0-1.75,1.75V41.2a1.75,1.75,0,0,0,3.5,0V37.463A1.75,1.75,0,0,0,63.833,35.713Z"/><path d="M116.933,97.982a7.748,7.748,0,0,0-7.346-4.832A7.823,7.823,0,0,0,96.27,87.466V58.686h19.189a1.749,1.749,0,0,0,1.647-2.34l-14.72-41.093a1.753,1.753,0,0,0-.958-1.018L82.255,6.024,77.114.549A1.807,1.807,0,0,0,75.839,0H51.826a1.817,1.817,0,0,0-1.275.552L45.409,6.024,26.238,14.235a1.752,1.752,0,0,0-.959,1.018L10.559,56.346a1.749,1.749,0,0,0,1.647,2.34H31.4V105a1.751,1.751,0,0,0,1.75,1.75H76.989a7.821,7.821,0,0,0,5.575,13.291H82.7a7.831,7.831,0,0,0,13.446,5.569A7.736,7.736,0,0,0,101.72,128a7.918,7.918,0,0,0,3.034-.611,7.743,7.743,0,0,0,4.833-7.346h.132a7.83,7.83,0,0,0,5.437-13.446A7.743,7.743,0,0,0,116.933,97.982ZM51.763,4.371,61.579,15.9,55.843,23.3,48.525,7.818ZM66.087,15.9,75.9,4.371,79.14,7.819,71.822,23.3Zm-.6-4.69-1.651,1.939L59.461,8.013,55.615,3.5H72.05ZM34.9,56.936V36.374a1.75,1.75,0,0,0-3.5,0V55.186h-16.7L28.317,17.152l17.255-7.39L53.9,27.377a1.767,1.767,0,0,0,2.967.324l5.219-6.739v9.192a1.75,1.75,0,0,0,3.5,0V20.962L70.8,27.7a1.766,1.766,0,0,0,2.966-.324L82.093,9.762l17.255,7.39,13.626,38.034H96.27V36.374a1.75,1.75,0,0,0-3.5,0V85.539A7.827,7.827,0,0,0,82.7,93.15a7.69,7.69,0,0,0-7.345,4.832,7.768,7.768,0,0,0-.258,5.268H34.9ZM112.6,109a4.331,4.331,0,0,1-3.124,7.539,3.236,3.236,0,0,0-3.4,3.4,4.33,4.33,0,0,1-7.538,3.123,3.236,3.236,0,0,0-4.8,0,4.33,4.33,0,0,1-7.538-3.123,3.236,3.236,0,0,0-3.4-3.4A4.33,4.33,0,0,1,79.683,109a3.235,3.235,0,0,0,0-4.8,4.679,4.679,0,0,1-.377-.4c-.013-.014-.026-.029-.04-.043a4.324,4.324,0,0,1,3.54-7.095,3.236,3.236,0,0,0,3.4-3.4,4.325,4.325,0,0,1,7.07-3.562l.037.034a4.914,4.914,0,0,1,.431.405,3.236,3.236,0,0,0,4.8,0,4.33,4.33,0,0,1,7.538,3.123,3.236,3.236,0,0,0,3.4,3.4,4.331,4.331,0,0,1,3.124,7.539,3.233,3.233,0,0,0,0,4.8Z"/><path d="M96.142,98.188a8.407,8.407,0,1,0,8.407,8.407A8.417,8.417,0,0,0,96.142,98.188Zm0,13.314a4.907,4.907,0,1,1,4.907-4.907A4.912,4.912,0,0,1,96.142,111.5Z"/></g></svg>
