<svg height="512" viewBox="0 0 60 60" width="512" xmlns="http://www.w3.org/2000/svg"><g id="009---Gen-Z-Authentic-Brands"><path id="Shape" d="m41 28c-7.1797017 0-13 5.8202983-13 13s5.8202983 13 13 13 13-5.8202983 13-13c-.008266-7.1762751-5.8237249-12.991734-13-13zm0 24c-6.0751322 0-11-4.9248678-11-11s4.9248678-11 11-11 11 4.9248678 11 11c-.0071635 6.0721626-4.9278374 10.9928365-11 11z"/><path id="Shape" d="m59.4 38.862-1.47-2.4.07-2.806c.0472829-1.54281-.7833062-2.9792952-2.144-3.708l-2.469-1.335-1.336-2.471c-.7304898-1.3582324-2.1654586-2.1873942-3.707-2.142l-2.808.075-2.4-1.47c-1.3105256-.8090471-2.9654744-.8090471-4.276 0l-2.4 1.47-2.804-.075c-.5668569-.0162589-1.1308716.0859177-1.656.3v-3.679l6.9-3.421c.9725305-.4865591 1.3780832-1.6610183.913-2.644l-4.911-10-.023.012c-.0870254-.19818717-.2371543-.36202803-.427-.466l-8-4c-.1406028-.06891941-.2954255-.10385726-.452-.102h-12c-.1547301-.0016999-.3077438.03253135-.447.1l-8 4c-.18984574.10397197-.3399746.26781283-.427.466l-.026-.007-4.92 10.027c-.44667629.9789951-.03599403 2.1358091.928 2.614l6.892 3.421v17.379c0 1.6568542 1.34314575 3 3 3h11c.000838.7552094.2113202 1.4953593.608 2.138l1.47 2.4-.078 2.806c-.0467193 1.5429264.7836569 2.9794308 2.144 3.709l2.469 1.335 1.336 2.47c.7318822 1.356881 2.1659341 2.1855131 3.707 2.142l2.808-.076 2.4 1.47c1.3104364.8106293 2.9665636.8106293 4.277 0l2.4-1.47 2.803.076c1.5426878.0457733 2.9787301-.7843358 3.709-2.144l1.335-2.469 2.47-1.336c1.3590801-.7296155 2.1885751-2.1651608 2.142-3.707l-.076-2.808 1.47-2.4c.810531-1.3087707.8128532-2.9629588.006-4.274zm-27.39-20.479c.069-6.2 1.124-9.628 1.9-11.306l4.09 8.335zm-7.619-16.383c-1.0357968 1.36066808-2.6845928 2.11165691-4.391 2-1.7070959.1123437-3.3568016-.63871736-4.393-2zm-18.291 5.072c.773 1.673 1.827 5.1 1.894 11.318l-6-2.949zm3.9 30.928v-19c0-7.919-1.556-11.9-2.53-13.617l6.009-3c1.302811 2.35380227 3.8343997 3.75799738 6.521 3.617 2.6876853.14002304 5.2195488-1.26626581 6.521-3.622l6.009 3.005c-.974 1.717-2.53 5.698-2.53 13.617v7.058c-.016.029-.037.054-.053.084l-1.335 2.47-2.47 1.335c-1.3599089.7297645-2.1895807 2.1663904-2.142 3.709l.076 2.808-1.47 2.4c-.028.045-.047.093-.073.139h-11.533c-.2657371.0000012-.5205467-.1057674-.7081696-.2939531-.1876228-.1881857-.29262761-.443311-.2918304-.7090469zm47.691 4.092s-1.712 2.818-1.737 2.908.046 3.4.046 3.4c.0229655.7893087-.4032093 1.5234917-1.1 1.895 0 0-2.847 1.549-2.9 1.595-.093.08-1.707 3.017-1.707 3.017-.3729213.6935919-1.1058697 1.1167892-1.893 1.093 0 0-3.31-.07-3.4-.047s-2.908 1.736-2.908 1.736c-.6694857.4140564-1.5155143.4140564-2.185 0 0 0-2.817-1.71-2.907-1.735s-3.4.046-3.4.046c-.7929339.0375349-1.5343453-.3928358-1.895-1.1 0 0-1.549-2.847-1.595-2.9-.08-.093-3.017-1.707-3.017-1.707-.6934223-.3730961-1.1165531-1.1059292-1.093-1.893 0 0 .074-3.3.048-3.4s-1.737-2.908-1.737-2.908c-.4140564-.6694857-.4140564-1.5155143 0-2.185 0 0 1.71-2.817 1.735-2.907s-.046-3.4-.046-3.4c-.0239331-.7882173.4001452-1.5221246 1.095-1.895 0 0 2.936-1.612 3.015-1.705.046-.054 1.6-2.907 1.6-2.907.3731289-.6919307 1.1041741-1.1146991 1.89-1.093 0 0 3.305.078 3.4.052s2.907-1.74 2.907-1.74c.670127-.413066 1.515873-.413066 2.186 0 0 0 2.817 1.714 2.907 1.74s3.4-.052 3.4-.052c.7874453-.0208816 1.5198662.4023379 1.895 1.095 0 0 1.551 2.854 1.6 2.907.08.093 3.017 1.707 3.017 1.707.6908302.3741295 1.1117595 1.1057264 1.088 1.891 0 0-.074 3.3-.048 3.4s1.737 2.908 1.737 2.908c.414726.66873.4155005 1.5145115.002 2.184z"/><path id="Path" d="m46.257 35.331-8.295 9.217-2.255-2.255c-.3923789-.3789722-1.0160848-.3735524-1.4018186.0121814s-.3911536 1.0094397-.0121814 1.4018186l3 3c.1874927.1875494.4418052.2929434.707.293h.026c.2742894-.0072933.5335325-.1269717.717-.331l9-10c.3563368-.411825.3176238-1.0330688-.0870838-1.397469s-1.0265947-.3379633-1.3989162.059469z"/></g></svg>