<svg id="Capa_1" enable-background="new 0 0 512 512" height="512" viewBox="0 0 512 512" width="512" xmlns="http://www.w3.org/2000/svg"><g><path d="m212.318 180.874c-4.142 0-7.5 3.358-7.5 7.5v19.173c0 4.142 3.358 7.5 7.5 7.5s7.5-3.358 7.5-7.5v-19.173c-.001-4.142-3.358-7.5-7.5-7.5z"/><path d="m212.318 253.207c-4.142 0-7.5 3.358-7.5 7.5v19.173c0 4.142 3.358 7.5 7.5 7.5s7.5-3.358 7.5-7.5v-19.173c-.001-4.142-3.358-7.5-7.5-7.5z"/><path d="m212.318 325.54c-4.142 0-7.5 3.358-7.5 7.5v19.173c0 4.142 3.358 7.5 7.5 7.5s7.5-3.358 7.5-7.5v-19.173c-.001-4.142-3.358-7.5-7.5-7.5z"/><path d="m497.092 460.48-23.361-59.237c2.274-2.002 4.279-4.333 5.885-7.109 6.453-11.153 3.469-24.013.582-36.45-1.511-6.511-2.937-12.66-2.937-18.133 0-5.474 1.427-11.623 2.937-18.134 2.886-12.436 5.87-25.296-.582-36.45-6.663-11.515-20.077-15.527-31.912-19.066-6.214-1.858-12.083-3.613-16.518-6.179-4.169-2.412-8.441-6.505-12.964-10.838-2.298-2.202-4.674-4.477-7.168-6.648v-88.686c0-4.142-3.358-7.5-7.5-7.5s-7.5 3.358-7.5 7.5v78.985c-3.398-1.325-7.031-2.113-10.954-2.113-13.851 0-24.089 9.808-33.122 18.463-4.523 4.333-8.795 8.426-12.964 10.838-4.435 2.565-10.304 4.32-16.517 6.179-11.836 3.539-25.25 7.55-31.913 19.066-6.453 11.153-3.469 24.013-.583 36.45 1.511 6.511 2.937 12.66 2.937 18.134s-1.427 11.623-2.937 18.133c-2.886 12.436-5.87 25.296.583 36.45 1.606 2.776 3.611 5.107 5.885 7.109l-8.051 20.416h-28.932v-256.196c7.769.643 15.517-1.287 22.28-5.896 38.602-26.475 60.656-57.399 70.366-73.477 4.076-6.748 6.23-14.52 6.23-22.474v-9.102c21.208 2.589 37.693 20.696 37.693 42.591v21.445c0 4.142 3.358 7.5 7.5 7.5s7.5-3.358 7.5-7.5v-21.445c0-30.174-23.197-55.02-52.692-57.674v-9.614c-.001-16.442-13.377-29.818-29.819-29.818h-232.453c-16.442 0-29.818 13.376-29.818 29.818v9.614c-29.496 2.653-52.693 27.499-52.693 57.674v210.521c0 4.142 3.358 7.5 7.5 7.5s7.5-3.358 7.5-7.5v-210.521c0-21.896 16.485-40.002 37.693-42.591v9.102c0 7.954 2.154 15.726 6.23 22.475 9.71 16.077 31.763 47.002 70.366 73.477 6.751 4.63 14.635 6.522 22.28 5.9v256.191h-93.648c-23.667 0-42.921-19.255-42.921-42.922v-36.112c0-4.142-3.358-7.5-7.5-7.5s-7.5 3.358-7.5 7.5v36.112c0 31.938 25.983 57.921 57.921 57.921h211.002l-9.394 23.821c-2.485 6.3-1.444 13.22 2.784 18.511s10.75 7.829 17.442 6.799l29.743-4.595 18.602 23.66c3.602 4.581 8.918 7.141 14.6 7.141 7.678.037 14.69-4.647 17.457-11.832l11.363-28.813 11.363 28.813c2.484 6.3 7.968 10.647 14.67 11.628 6.576.989 13.216-1.591 17.388-6.936l18.602-23.66 29.743 4.595c6.695 1.033 13.214-1.508 17.442-6.799 4.227-5.291 5.268-12.211 2.784-18.512zm-153.73-396.864c0 5.221-1.407 10.311-4.07 14.72-9.083 15.039-29.737 43.984-66.01 68.862-8.416 5.772-19.945 4.045-26.249-3.932l-23.017-29.129c56.73-27.798 99.769-62.741 119.302-85.177zm-14.818-48.616c2.081 0 4.061.435 5.86 1.213-15.044 18.294-57.652 56.343-122.086 86.927-63.463-30.137-106.111-68.03-121.978-86.978 1.769-.748 3.712-1.162 5.751-1.162zm-177.192 132.198c-36.273-24.878-56.927-53.822-66.01-68.861-2.663-4.409-4.07-9.499-4.07-14.72l.056-34.902c19.235 21.849 61.143 56.936 119.289 85.423l-23.016 29.129c-6.302 7.977-17.833 9.703-26.249 3.931zm28.796 13.467c3.456-2.073 6.597-4.777 9.223-8.1l22.947-29.041 22.947 29.041c2.626 3.323 5.767 6.027 9.223 8.099v260.996h-64.339v-260.995zm124.465 157.362c-2.33-10.04-4.53-19.524-1.045-25.547 3.681-6.362 13.175-9.201 23.227-12.207 6.77-2.024 13.772-4.118 19.732-7.566 5.731-3.316 10.865-8.234 15.829-12.991 7.673-7.35 14.92-14.294 22.745-14.294 8.685.115 16.258 8.259 22.745 14.294 4.964 4.756 10.098 9.675 15.829 12.991 5.96 3.448 12.961 5.542 19.732 7.567 10.052 3.005 19.546 5.845 23.227 12.206 3.485 6.023 1.284 15.507-1.045 25.547-1.635 7.047-3.326 14.333-3.326 21.525s1.691 14.477 3.326 21.524c2.33 10.04 4.531 19.524 1.046 25.547-3.681 6.362-13.175 9.202-23.227 12.207-6.771 2.024-13.772 4.118-19.732 7.566-5.731 3.315-10.865 8.234-15.829 12.991-7.167 6.866-13.963 13.373-21.206 14.201-9.3.744-16.023-6.525-24.284-14.201-4.965-4.757-10.098-9.675-15.829-12.991-5.96-3.449-12.961-5.542-19.732-7.567-10.052-3.006-19.545-5.845-23.226-12.207-3.485-6.024-1.284-15.507 1.046-25.547 1.635-7.047 3.326-14.333 3.326-21.524s-1.693-14.477-3.329-21.524zm55.171 176.634c-.705 1.788-2.255 2.197-2.888 2.29-.633.094-2.236.145-3.424-1.366l-21.311-27.105c-1.674-2.129-4.365-3.192-7.041-2.776l-34.075 5.264c-1.894.29-3.034-.839-3.434-1.339-.399-.5-1.253-1.856-.548-3.644l22.513-57.09c4.256 1.708 8.687 3.041 12.92 4.307 6.214 1.858 12.084 3.613 16.518 6.179 4.169 2.412 8.441 6.505 12.964 10.838 7.474 7.16 15.775 15.106 26.264 17.636zm122.805-25.033c-.4.5-1.543 1.627-3.434 1.339l-34.075-5.264c-2.676-.414-5.367.647-7.041 2.776l-21.311 27.105c-1.188 1.512-2.79 1.46-3.424 1.366-.634-.093-2.183-.501-2.888-2.29l-17.254-43.754 1.514-3.839c9.225-3.134 16.729-10.32 23.545-16.85 4.523-4.333 8.795-8.426 12.964-10.838 4.434-2.565 10.304-4.321 16.517-6.179 4.233-1.266 8.665-2.599 12.921-4.307l22.514 57.09c.706 1.788-.148 3.145-.548 3.645z"/><path d="m385.1 398.314c32.402 0 58.762-26.36 58.762-58.762s-26.36-58.763-58.762-58.763-58.762 26.361-58.762 58.763 26.36 58.762 58.762 58.762zm0-102.526c24.13 0 43.762 19.632 43.762 43.763s-19.632 43.762-43.762 43.762-43.762-19.632-43.762-43.762c0-24.131 19.632-43.763 43.762-43.763z"/></g></svg>